<mxfile host="65bd71144e">
    <diagram id="zD4Cf2Z5Y9NEIo9-5LYl" name="page">
        <mxGraphModel dx="408" dy="590" grid="1" gridSize="10" guides="1" tooltips="1" connect="1" arrows="1" fold="1" page="1" pageScale="1" pageWidth="200" pageHeight="200" math="0" shadow="0">
            <root>
                <mxCell id="0"/>
                <mxCell id="1" parent="0"/>
                <mxCell id="190" value="" style="group;html=1;" parent="1" vertex="1" connectable="0">
                    <mxGeometry x="680" y="240" width="1280" height="750" as="geometry"/>
                </mxCell>
                <mxCell id="42" value="" style="rounded=1;whiteSpace=wrap;html=1;fillColor=default;arcSize=2;strokeColor=#1A1A1A;strokeWidth=3;" parent="190" vertex="1">
                    <mxGeometry width="920" height="730" as="geometry"/>
                </mxCell>
                <mxCell id="44" value="chrome browser" style="text;html=1;strokeColor=none;fillColor=none;align=center;verticalAlign=middle;whiteSpace=wrap;rounded=0;fontSize=20;fontStyle=1" parent="190" vertex="1">
                    <mxGeometry x="345" y="5" width="230" height="30" as="geometry"/>
                </mxCell>
                <mxCell id="56" value="" style="ellipse;whiteSpace=wrap;html=1;aspect=fixed;fontSize=25;strokeColor=#B20000;strokeWidth=3;fillColor=#e51400;fontColor=#ffffff;" parent="190" vertex="1">
                    <mxGeometry x="30" y="10" width="20" height="20" as="geometry"/>
                </mxCell>
                <mxCell id="57" value="" style="ellipse;whiteSpace=wrap;html=1;aspect=fixed;fontSize=25;strokeColor=#BD7000;strokeWidth=3;fillColor=#f0a30a;fontColor=#000000;" parent="190" vertex="1">
                    <mxGeometry x="70" y="10" width="20" height="20" as="geometry"/>
                </mxCell>
                <mxCell id="58" value="" style="ellipse;whiteSpace=wrap;html=1;aspect=fixed;fontSize=25;strokeColor=#3A5431;strokeWidth=3;fillColor=#6d8764;fontColor=#ffffff;" parent="190" vertex="1">
                    <mxGeometry x="110" y="10" width="20" height="20" as="geometry"/>
                </mxCell>
                <mxCell id="63" value="" style="rounded=1;whiteSpace=wrap;html=1;fontSize=20;strokeColor=#1A1A1A;strokeWidth=3;fillColor=#F7F7F7;arcSize=18;align=center;" parent="190" vertex="1">
                    <mxGeometry x="85" y="49" width="750" height="22" as="geometry"/>
                </mxCell>
                <mxCell id="67" value="" style="endArrow=none;html=1;fontSize=15;fontColor=#2A2A2A;exitX=0;exitY=0.25;exitDx=0;exitDy=0;entryX=1;entryY=0.25;entryDx=0;entryDy=0;strokeWidth=3;strokeColor=#1A1A1A;" parent="190" edge="1">
                    <mxGeometry width="50" height="50" relative="1" as="geometry">
                        <mxPoint y="79.99999999999989" as="sourcePoint"/>
                        <mxPoint x="920" y="80" as="targetPoint"/>
                    </mxGeometry>
                </mxCell>
                <mxCell id="123" value="&lt;font style=&quot;font-size: 15px&quot;&gt;&lt;b style=&quot;font-size: 12px&quot;&gt;start&lt;br&gt;&lt;/b&gt;&lt;/font&gt;" style="rounded=1;whiteSpace=wrap;html=1;fillColor=none;arcSize=2;strokeColor=default;strokeWidth=3;" parent="190" vertex="1">
                    <mxGeometry x="100" y="100" width="70" height="30" as="geometry"/>
                </mxCell>
                <mxCell id="155" value="&lt;font style=&quot;font-size: 15px&quot;&gt;&lt;b style=&quot;font-size: 12px&quot;&gt;execute&lt;br&gt;&lt;/b&gt;&lt;/font&gt;" style="rounded=1;whiteSpace=wrap;html=1;fillColor=none;arcSize=2;strokeColor=default;strokeWidth=3;" parent="190" vertex="1">
                    <mxGeometry x="100" y="160" width="70" height="30" as="geometry"/>
                </mxCell>
                <mxCell id="156" style="edgeStyle=none;html=1;entryX=0.5;entryY=0;entryDx=0;entryDy=0;fontSize=12;fontColor=#F7F7F7;strokeWidth=2;fillColor=#F7F7F7;" parent="190" source="123" target="155" edge="1">
                    <mxGeometry relative="1" as="geometry"/>
                </mxCell>
                <mxCell id="157" value="chrome extension" style="swimlane;horizontal=0;fontSize=12;fontColor=#F7F7F7;strokeColor=default;strokeWidth=3;fillColor=#000000;whiteSpace=wrap;labelBorderColor=none;html=1;" parent="190" vertex="1">
                    <mxGeometry x="100" y="220" width="400" height="470" as="geometry"/>
                </mxCell>
                <mxCell id="161" value="&lt;font style=&quot;font-size: 15px&quot;&gt;&lt;b style=&quot;font-size: 12px&quot;&gt;start&lt;br&gt;&lt;/b&gt;&lt;/font&gt;" style="rounded=1;whiteSpace=wrap;html=1;fillColor=none;arcSize=2;strokeColor=default;strokeWidth=3;" parent="157" vertex="1">
                    <mxGeometry x="80" y="20" width="70" height="30" as="geometry"/>
                </mxCell>
                <mxCell id="167" style="edgeStyle=none;html=1;entryX=0;entryY=0.5;entryDx=0;entryDy=0;fontSize=12;fontColor=#F7F7F7;strokeWidth=2;fillColor=#F7F7F7;exitX=0;exitY=0.5;exitDx=0;exitDy=0;" parent="157" source="162" target="163" edge="1">
                    <mxGeometry relative="1" as="geometry">
                        <Array as="points">
                            <mxPoint x="50" y="95"/>
                            <mxPoint x="50" y="210"/>
                        </Array>
                    </mxGeometry>
                </mxCell>
                <mxCell id="162" value="&lt;font style=&quot;font-size: 15px&quot;&gt;&lt;b style=&quot;font-size: 12px&quot;&gt;execute&lt;br&gt;&lt;/b&gt;&lt;/font&gt;" style="rounded=1;whiteSpace=wrap;html=1;fillColor=none;arcSize=2;strokeColor=default;strokeWidth=3;" parent="157" vertex="1">
                    <mxGeometry x="80" y="80" width="70" height="30" as="geometry"/>
                </mxCell>
                <mxCell id="160" style="edgeStyle=none;html=1;entryX=0.5;entryY=0;entryDx=0;entryDy=0;fontSize=12;fontColor=#F7F7F7;strokeWidth=2;fillColor=#F7F7F7;" parent="157" source="161" target="162" edge="1">
                    <mxGeometry relative="1" as="geometry"/>
                </mxCell>
                <mxCell id="163" value="native application" style="swimlane;horizontal=0;fontSize=12;fontColor=#F7F7F7;strokeColor=default;strokeWidth=3;fillColor=#000000;whiteSpace=wrap;html=1;" parent="157" vertex="1">
                    <mxGeometry x="80" y="140" width="290" height="140" as="geometry"/>
                </mxCell>
                <mxCell id="178" value="&lt;font style=&quot;font-size: 15px&quot;&gt;&lt;b style=&quot;font-size: 12px&quot;&gt;receive from chrome extension&lt;br&gt;&lt;/b&gt;&lt;b style=&quot;font-size: 12px&quot;&gt;(listening)&lt;/b&gt;&lt;b style=&quot;font-size: 12px&quot;&gt;&lt;br&gt;&lt;/b&gt;&lt;/font&gt;" style="rounded=1;whiteSpace=wrap;html=1;fillColor=none;arcSize=2;strokeColor=default;strokeWidth=3;" parent="163" vertex="1">
                    <mxGeometry x="60" y="80" width="190" height="50" as="geometry"/>
                </mxCell>
                <mxCell id="183" style="edgeStyle=none;html=1;fontSize=12;fontColor=#F7F7F7;strokeWidth=2;fillColor=#F7F7F7;" parent="157" source="182" target="169" edge="1">
                    <mxGeometry relative="1" as="geometry"/>
                </mxCell>
                <mxCell id="182" value="&lt;font style=&quot;font-size: 15px&quot;&gt;&lt;b style=&quot;font-size: 12px&quot;&gt;receive&lt;/b&gt;&lt;b style=&quot;font-size: 12px&quot;&gt;&lt;br&gt;&lt;/b&gt;&lt;b style=&quot;font-size: 12px&quot;&gt;(listening)&lt;/b&gt;&lt;b style=&quot;font-size: 12px&quot;&gt;&lt;br&gt;&lt;/b&gt;&lt;/font&gt;" style="rounded=1;whiteSpace=wrap;html=1;fillColor=none;arcSize=2;strokeColor=default;strokeWidth=3;" parent="157" vertex="1">
                    <mxGeometry x="80" y="310" width="70" height="50" as="geometry"/>
                </mxCell>
                <mxCell id="173" style="edgeStyle=none;html=1;entryX=0.5;entryY=0;entryDx=0;entryDy=0;fontSize=12;fontColor=#F7F7F7;strokeWidth=2;fillColor=#F7F7F7;exitX=0;exitY=0.5;exitDx=0;exitDy=0;" parent="157" source="168" target="182" edge="1">
                    <mxGeometry relative="1" as="geometry">
                        <Array as="points">
                            <mxPoint x="115" y="185"/>
                        </Array>
                    </mxGeometry>
                </mxCell>
                <mxCell id="169" value="&lt;font style=&quot;font-size: 15px&quot;&gt;&lt;b style=&quot;font-size: 12px&quot;&gt;inject&lt;br&gt;&lt;/b&gt;&lt;/font&gt;" style="rounded=1;whiteSpace=wrap;html=1;fillColor=none;arcSize=2;strokeColor=default;strokeWidth=3;" parent="157" vertex="1">
                    <mxGeometry x="80" y="390" width="70" height="30" as="geometry"/>
                </mxCell>
                <mxCell id="170" value="&lt;font style=&quot;font-size: 15px&quot;&gt;&lt;b style=&quot;font-size: 12px&quot;&gt;result&lt;br&gt;&lt;/b&gt;&lt;/font&gt;" style="rounded=1;whiteSpace=wrap;html=1;fillColor=none;arcSize=2;strokeColor=default;strokeWidth=3;" parent="157" vertex="1">
                    <mxGeometry x="200" y="320" width="70" height="30" as="geometry"/>
                </mxCell>
                <mxCell id="168" value="&lt;font style=&quot;font-size: 15px&quot;&gt;&lt;b style=&quot;font-size: 12px&quot;&gt;receive from external process&lt;br&gt;&lt;/b&gt;&lt;b style=&quot;font-size: 12px&quot;&gt;(listening)&lt;br&gt;&lt;/b&gt;&lt;/font&gt;" style="rounded=1;whiteSpace=wrap;html=1;fillColor=none;arcSize=2;strokeColor=default;strokeWidth=3;" parent="157" vertex="1">
                    <mxGeometry x="140" y="160" width="190" height="50" as="geometry"/>
                </mxCell>
                <mxCell id="216" style="edgeStyle=none;html=1;entryX=0.5;entryY=1;entryDx=0;entryDy=0;fontSize=12;fontColor=#F7F7F7;strokeWidth=2;fillColor=#F7F7F7;" parent="157" source="170" target="178" edge="1">
                    <mxGeometry relative="1" as="geometry">
                        <mxPoint x="460" y="345" as="sourcePoint"/>
                        <mxPoint x="280" y="345" as="targetPoint"/>
                        <Array as="points"/>
                    </mxGeometry>
                </mxCell>
                <mxCell id="159" style="edgeStyle=none;html=1;entryX=0;entryY=0.5;entryDx=0;entryDy=0;fontSize=12;fontColor=#F7F7F7;strokeWidth=2;fillColor=#F7F7F7;exitX=0;exitY=0.5;exitDx=0;exitDy=0;" parent="190" source="155" target="157" edge="1">
                    <mxGeometry relative="1" as="geometry">
                        <Array as="points">
                            <mxPoint x="70" y="175"/>
                            <mxPoint x="70" y="455"/>
                        </Array>
                    </mxGeometry>
                </mxCell>
                <mxCell id="97" value="" style="rounded=1;whiteSpace=wrap;html=1;fillColor=default;arcSize=2;strokeColor=#1A1A1A;strokeWidth=3;" parent="190" vertex="1">
                    <mxGeometry x="570" y="90" width="490" height="250" as="geometry"/>
                </mxCell>
                <mxCell id="98" value="external process" style="text;html=1;strokeColor=none;fillColor=none;align=center;verticalAlign=middle;whiteSpace=wrap;rounded=0;fontSize=20;fontStyle=1" parent="190" vertex="1">
                    <mxGeometry x="700" y="100" width="230" height="30" as="geometry"/>
                </mxCell>
                <mxCell id="181" value="&lt;font style=&quot;font-size: 15px&quot;&gt;&lt;b style=&quot;font-size: 12px&quot;&gt;request&lt;br&gt;&lt;/b&gt;&lt;/font&gt;" style="rounded=1;whiteSpace=wrap;html=1;fillColor=none;arcSize=2;strokeColor=default;strokeWidth=3;" parent="190" vertex="1">
                    <mxGeometry x="620" y="290" width="70" height="30" as="geometry"/>
                </mxCell>
                <mxCell id="187" value="&lt;font style=&quot;font-size: 15px&quot;&gt;&lt;b style=&quot;font-size: 12px&quot;&gt;response&lt;br&gt;&lt;/b&gt;&lt;/font&gt;" style="rounded=1;whiteSpace=wrap;html=1;fillColor=none;arcSize=2;strokeColor=default;strokeWidth=3;" parent="190" vertex="1">
                    <mxGeometry x="720" y="290" width="70" height="30" as="geometry"/>
                </mxCell>
                <mxCell id="186" style="edgeStyle=none;html=1;entryX=1;entryY=0.5;entryDx=0;entryDy=0;fontSize=12;fontColor=#F7F7F7;strokeWidth=2;fillColor=#F7F7F7;dashed=1;" parent="190" source="181" target="168" edge="1">
                    <mxGeometry relative="1" as="geometry">
                        <Array as="points">
                            <mxPoint x="655" y="405"/>
                        </Array>
                    </mxGeometry>
                </mxCell>
                <mxCell id="188" style="edgeStyle=none;html=1;entryX=0.5;entryY=1;entryDx=0;entryDy=0;fontSize=12;fontColor=#F7F7F7;strokeWidth=2;fillColor=#F7F7F7;dashed=1;exitX=1;exitY=0.5;exitDx=0;exitDy=0;" parent="190" source="178" target="187" edge="1">
                    <mxGeometry relative="1" as="geometry">
                        <Array as="points">
                            <mxPoint x="755" y="465"/>
                        </Array>
                    </mxGeometry>
                </mxCell>
                <mxCell id="211" value="&lt;font style=&quot;font-size: 15px&quot;&gt;&lt;b style=&quot;font-size: 12px&quot;&gt;injected&lt;br&gt;&lt;/b&gt;&lt;/font&gt;" style="rounded=1;whiteSpace=wrap;html=1;fillColor=none;arcSize=2;strokeColor=default;strokeWidth=3;" parent="190" vertex="1">
                    <mxGeometry x="550" y="600" width="70" height="30" as="geometry"/>
                </mxCell>
                <mxCell id="174" style="edgeStyle=none;html=1;fontSize=12;fontColor=#F7F7F7;strokeWidth=2;fillColor=#F7F7F7;exitX=0.5;exitY=1;exitDx=0;exitDy=0;entryX=0.5;entryY=1;entryDx=0;entryDy=0;" parent="190" source="169" target="211" edge="1">
                    <mxGeometry relative="1" as="geometry">
                        <mxPoint x="1170" y="650" as="targetPoint"/>
                        <Array as="points">
                            <mxPoint x="215" y="670"/>
                            <mxPoint x="585" y="670"/>
                        </Array>
                    </mxGeometry>
                </mxCell>
                <mxCell id="213" style="edgeStyle=none;html=1;entryX=1;entryY=0.5;entryDx=0;entryDy=0;fontSize=12;fontColor=#F7F7F7;strokeWidth=2;fillColor=#F7F7F7;exitX=0.5;exitY=0;exitDx=0;exitDy=0;" parent="190" source="211" target="170" edge="1">
                    <mxGeometry relative="1" as="geometry">
                        <mxPoint x="410" y="565" as="sourcePoint"/>
                        <mxPoint x="345" y="500" as="targetPoint"/>
                        <Array as="points">
                            <mxPoint x="585" y="555"/>
                        </Array>
                    </mxGeometry>
                </mxCell>
            </root>
        </mxGraphModel>
    </diagram>
</mxfile>